<svg width="63" height="11" viewBox="0 0 63 11" fill="none" xmlns="http://www.w3.org/2000/svg">
<path d="M3.22322 7.91778L2.95776 9.0681L3.96866 8.45835L5.41497 7.58598L6.86219 8.47039L7.87557 9.08968L7.61028 7.93206L7.23059 6.2752L8.50624 5.17193L9.3984 4.40033L8.22351 4.29572L6.54458 4.14623L5.87659 2.5799L5.41836 1.50544L4.95727 2.57867L4.28965 4.1326L2.60982 4.28218L1.44327 4.38605L2.32515 5.15671L3.60275 6.27316L3.22322 7.91778ZM2.82528 9.25325L3.43922 6.59914L3.50706 6.30586L3.27961 6.10867L1.22002 4.32306L3.94324 4.08667L4.2433 4.06062L4.36056 3.78319L5.41667 1.28436L6.47278 3.78319L6.59003 4.06062L6.89009 4.08667L9.61331 4.32306L7.55372 6.10867L7.32627 6.30586L7.39411 6.59914L8.00805 9.25325L5.67493 7.84582L5.41667 7.69003L5.1584 7.84582L2.82528 9.25325Z" fill="black" stroke="#FFE600"/>
<path d="M16.7104 8.03021L18.4167 7.00104L20.1229 8.04375L19.676 6.09375L21.1792 4.79375L19.2021 4.61771L18.4167 2.77604L17.6312 4.60417L15.6542 4.78021L17.1573 6.09375L16.7104 8.03021ZM15.0719 10.2917L15.9521 6.48646L13 3.92708L16.9 3.58854L18.4167 0L19.9333 3.58854L23.8333 3.92708L20.8812 6.48646L21.7615 10.2917L18.4167 8.27396L15.0719 10.2917Z" fill="#FFE600"/>
<path d="M29.7104 8.03021L31.4167 7.00104L33.1229 8.04375L32.676 6.09375L34.1792 4.79375L32.2021 4.61771L31.4167 2.77604L30.6312 4.60417L28.6542 4.78021L30.1573 6.09375L29.7104 8.03021ZM28.0719 10.2917L28.9521 6.48646L26 3.92708L29.9 3.58854L31.4167 0L32.9333 3.58854L36.8333 3.92708L33.8812 6.48646L34.7615 10.2917L31.4167 8.27396L28.0719 10.2917Z" fill="#FFE600"/>
<path d="M42.7104 8.03021L44.4167 7.00104L46.1229 8.04375L45.676 6.09375L47.1792 4.79375L45.2021 4.61771L44.4167 2.77604L43.6312 4.60417L41.6542 4.78021L43.1573 6.09375L42.7104 8.03021ZM41.0719 10.2917L41.9521 6.48646L39 3.92708L42.9 3.58854L44.4167 0L45.9333 3.58854L49.8333 3.92708L46.8812 6.48646L47.7615 10.2917L44.4167 8.27396L41.0719 10.2917Z" fill="#FFE600"/>
<path d="M42.7104 8.03021L44.4167 7.00104L46.1229 8.04375L45.676 6.09375L47.1792 4.79375L45.2021 4.61771L44.4167 2.77604L43.6312 4.60417L41.6542 4.78021L43.1573 6.09375L42.7104 8.03021ZM41.0719 10.2917L41.9521 6.48646L39 3.92708L42.9 3.58854L44.4167 0L45.9333 3.58854L49.8333 3.92708L46.8812 6.48646L47.7615 10.2917L44.4167 8.27396L41.0719 10.2917Z" fill="#FFE600"/>
<path d="M55.7104 8.03021L57.4167 7.00104L59.1229 8.04375L58.676 6.09375L60.1792 4.79375L58.2021 4.61771L57.4167 2.77604L56.6312 4.60417L54.6542 4.78021L56.1573 6.09375L55.7104 8.03021ZM54.0719 10.2917L54.9521 6.48646L52 3.92708L55.9 3.58854L57.4167 0L58.9333 3.58854L62.8333 3.92708L59.8812 6.48646L60.7615 10.2917L57.4167 8.27396L54.0719 10.2917Z" fill="url(#paint0_linear_868_143)"/>
<path d="M3.22322 7.91778L2.95776 9.0681L3.96866 8.45835L5.41497 7.58598L6.86219 8.47039L7.87557 9.08968L7.61028 7.93206L7.23059 6.2752L8.50624 5.17193L9.3984 4.40033L8.22351 4.29572L6.54458 4.14623L5.87659 2.5799L5.41836 1.50544L4.95727 2.57867L4.28965 4.1326L2.60982 4.28218L1.44327 4.38605L2.32515 5.15671L3.60275 6.27316L3.22322 7.91778ZM2.82528 9.25325L3.43922 6.59914L3.50706 6.30586L3.27961 6.10867L1.22002 4.32306L3.94324 4.08667L4.2433 4.06062L4.36056 3.78319L5.41667 1.28436L6.47278 3.78319L6.59003 4.06062L6.89009 4.08667L9.61331 4.32306L7.55372 6.10867L7.32627 6.30586L7.39411 6.59914L8.00805 9.25325L5.67493 7.84582L5.41667 7.69003L5.1584 7.84582L2.82528 9.25325Z" fill="black" stroke="#FFE600"/>
<path d="M16.7104 8.03021L18.4167 7.00104L20.1229 8.04375L19.676 6.09375L21.1792 4.79375L19.2021 4.61771L18.4167 2.77604L17.6312 4.60417L15.6542 4.78021L17.1573 6.09375L16.7104 8.03021ZM15.0719 10.2917L15.9521 6.48646L13 3.92708L16.9 3.58854L18.4167 0L19.9333 3.58854L23.8333 3.92708L20.8812 6.48646L21.7615 10.2917L18.4167 8.27396L15.0719 10.2917Z" fill="#FFE600"/>
<path d="M29.7104 8.03021L31.4167 7.00104L33.1229 8.04375L32.676 6.09375L34.1792 4.79375L32.2021 4.61771L31.4167 2.77604L30.6312 4.60417L28.6542 4.78021L30.1573 6.09375L29.7104 8.03021ZM28.0719 10.2917L28.9521 6.48646L26 3.92708L29.9 3.58854L31.4167 0L32.9333 3.58854L36.8333 3.92708L33.8812 6.48646L34.7615 10.2917L31.4167 8.27396L28.0719 10.2917Z" fill="#FFE600"/>
<path d="M42.7104 8.03021L44.4167 7.00104L46.1229 8.04375L45.676 6.09375L47.1792 4.79375L45.2021 4.61771L44.4167 2.77604L43.6312 4.60417L41.6542 4.78021L43.1573 6.09375L42.7104 8.03021ZM41.0719 10.2917L41.9521 6.48646L39 3.92708L42.9 3.58854L44.4167 0L45.9333 3.58854L49.8333 3.92708L46.8812 6.48646L47.7615 10.2917L44.4167 8.27396L41.0719 10.2917Z" fill="#FFE600"/>
<path d="M42.7104 8.03021L44.4167 7.00104L46.1229 8.04375L45.676 6.09375L47.1792 4.79375L45.2021 4.61771L44.4167 2.77604L43.6312 4.60417L41.6542 4.78021L43.1573 6.09375L42.7104 8.03021ZM41.0719 10.2917L41.9521 6.48646L39 3.92708L42.9 3.58854L44.4167 0L45.9333 3.58854L49.8333 3.92708L46.8812 6.48646L47.7615 10.2917L44.4167 8.27396L41.0719 10.2917Z" fill="#FFE600"/>
<path d="M55.7104 8.03021L57.4167 7.00104L59.1229 8.04375L58.676 6.09375L60.1792 4.79375L58.2021 4.61771L57.4167 2.77604L56.6312 4.60417L54.6542 4.78021L56.1573 6.09375L55.7104 8.03021ZM54.0719 10.2917L54.9521 6.48646L52 3.92708L55.9 3.58854L57.4167 0L58.9333 3.58854L62.8333 3.92708L59.8812 6.48646L60.7615 10.2917L57.4167 8.27396L54.0719 10.2917Z" fill="url(#paint1_linear_868_143)"/>
<defs>
<linearGradient id="paint0_linear_868_143" x1="51.9167" y1="5.375" x2="62.9167" y2="5.375" gradientUnits="userSpaceOnUse">
<stop stop-color="#FFE600"/>
<stop offset="0.5" stop-color="#FFE600"/>
<stop offset="0.5001"/>
</linearGradient>
<linearGradient id="paint1_linear_868_143" x1="51.9167" y1="5.375" x2="62.9167" y2="5.375" gradientUnits="userSpaceOnUse">
<stop stop-color="#FFE600"/>
<stop offset="0.713542" stop-color="#FFE600"/>
<stop offset="0.713642"/>
</linearGradient>
</defs>
</svg>
