<svg width="44" height="7" viewBox="0 0 44 7" fill="none" xmlns="http://www.w3.org/2000/svg">
<mask id="path-1-inside-1_253_368" fill="white">
<path d="M2.74 5.46184L4 4.76184L5.26 5.47105L4.93 4.14474L6.04 3.26053L4.58 3.14079L4 1.88816L3.42 3.13158L1.96 3.25132L3.07 4.14474L2.74 5.46184ZM1.53 7L2.18 4.41184L0 2.67105L2.88 2.44079L4 0L5.12 2.44079L8 2.67105L5.82 4.41184L6.47 7L4 5.62763L1.53 7Z"/>
</mask>
<path d="M2.74 5.46184L4 4.76184L5.26 5.47105L4.93 4.14474L6.04 3.26053L4.58 3.14079L4 1.88816L3.42 3.13158L1.96 3.25132L3.07 4.14474L2.74 5.46184ZM1.53 7L2.18 4.41184L0 2.67105L2.88 2.44079L4 0L5.12 2.44079L8 2.67105L5.82 4.41184L6.47 7L4 5.62763L1.53 7Z" fill="black"/>
<path d="M2.74 5.46184L1.76998 5.21881L1.20943 7.45612L3.22564 6.336L2.74 5.46184ZM4 4.76184L4.4905 3.8904L4.00319 3.61611L3.51436 3.88768L4 4.76184ZM5.26 5.47105L4.7695 6.34249L6.79032 7.47994L6.23041 5.2296L5.26 5.47105ZM4.93 4.14474L4.30693 3.36257L3.80449 3.76281L3.95959 4.38618L4.93 4.14474ZM6.04 3.26053L6.66307 4.0427L8.63715 2.47017L6.12174 2.26387L6.04 3.26053ZM4.58 3.14079L3.67255 3.56096L3.91742 4.08981L4.49826 4.13744L4.58 3.14079ZM4 1.88816L4.90745 1.46799L4.00335 -0.484604L3.09374 1.46543L4 1.88816ZM3.42 3.13158L3.50174 4.12823L4.08069 4.08075L4.32626 3.55431L3.42 3.13158ZM1.96 3.25132L1.87826 2.25466L-0.618702 2.45944L1.33299 4.03032L1.96 3.25132ZM3.07 4.14474L4.04002 4.38777L4.19555 3.76699L3.69701 3.36573L3.07 4.14474ZM1.53 7L0.560119 6.75642L-0.0021559 8.99528L2.01568 7.87414L1.53 7ZM2.18 4.41184L3.14988 4.65542L3.30653 4.0317L2.80399 3.63041L2.18 4.41184ZM0 2.67105L-0.0796982 1.67423L-2.59869 1.87563L-0.623993 3.45248L0 2.67105ZM2.88 2.44079L2.9597 3.43761L3.54429 3.39087L3.78888 2.85785L2.88 2.44079ZM4 0L4.90888 -0.417056L4 -2.39776L3.09112 -0.417056L4 0ZM5.12 2.44079L4.21112 2.85785L4.45571 3.39087L5.0403 3.43761L5.12 2.44079ZM8 2.67105L8.62399 3.45248L10.5987 1.87563L8.0797 1.67423L8 2.67105ZM5.82 4.41184L5.19601 3.63041L4.69347 4.0317L4.85012 4.65542L5.82 4.41184ZM6.47 7L5.98432 7.87414L8.00216 8.99528L7.43988 6.75642L6.47 7ZM4 5.62763L4.48568 4.7535L4 4.48364L3.51432 4.7535L4 5.62763ZM3.22564 6.336L4.48564 5.636L3.51436 3.88768L2.25436 4.58769L3.22564 6.336ZM3.5095 5.63328L4.7695 6.34249L5.7505 4.59961L4.4905 3.8904L3.5095 5.63328ZM6.23041 5.2296L5.90041 3.90329L3.95959 4.38618L4.28959 5.7125L6.23041 5.2296ZM5.55307 4.92691L6.66307 4.0427L5.41693 2.47836L4.30693 3.36257L5.55307 4.92691ZM6.12174 2.26387L4.66174 2.14414L4.49826 4.13744L5.95826 4.25718L6.12174 2.26387ZM5.48745 2.72062L4.90745 1.46799L3.09255 2.30833L3.67255 3.56096L5.48745 2.72062ZM3.09374 1.46543L2.51374 2.70885L4.32626 3.55431L4.90626 2.31089L3.09374 1.46543ZM3.33826 2.13492L1.87826 2.25466L2.04174 4.24797L3.50174 4.12823L3.33826 2.13492ZM1.33299 4.03032L2.44299 4.92375L3.69701 3.36573L2.58701 2.47231L1.33299 4.03032ZM2.09998 3.9017L1.76998 5.21881L3.71002 5.70488L4.04002 4.38777L2.09998 3.9017ZM2.49988 7.24358L3.14988 4.65542L1.21012 4.16826L0.560119 6.75642L2.49988 7.24358ZM2.80399 3.63041L0.623993 1.88962L-0.623993 3.45248L1.55601 5.19327L2.80399 3.63041ZM0.0796982 3.66787L2.9597 3.43761L2.8003 1.44397L-0.0796982 1.67423L0.0796982 3.66787ZM3.78888 2.85785L4.90888 0.417056L3.09112 -0.417056L1.97112 2.02373L3.78888 2.85785ZM3.09112 0.417056L4.21112 2.85785L6.02888 2.02373L4.90888 -0.417056L3.09112 0.417056ZM5.0403 3.43761L7.9203 3.66787L8.0797 1.67423L5.1997 1.44397L5.0403 3.43761ZM7.37601 1.88962L5.19601 3.63041L6.44399 5.19327L8.62399 3.45248L7.37601 1.88962ZM4.85012 4.65542L5.50012 7.24358L7.43988 6.75642L6.78988 4.16826L4.85012 4.65542ZM6.95568 6.12586L4.48568 4.7535L3.51432 6.50177L5.98432 7.87414L6.95568 6.12586ZM3.51432 4.7535L1.04432 6.12586L2.01568 7.87414L4.48568 6.50177L3.51432 4.7535Z" fill="#FFE600" mask="url(#path-1-inside-1_253_368)"/>
<path d="M11.74 5.46184L13 4.76184L14.26 5.47105L13.93 4.14474L15.04 3.26053L13.58 3.14079L13 1.88816L12.42 3.13158L10.96 3.25132L12.07 4.14474L11.74 5.46184ZM10.53 7L11.18 4.41184L9 2.67105L11.88 2.44079L13 0L14.12 2.44079L17 2.67105L14.82 4.41184L15.47 7L13 5.62763L10.53 7Z" fill="#FFE600"/>
<path d="M20.74 5.46184L22 4.76184L23.26 5.47105L22.93 4.14474L24.04 3.26053L22.58 3.14079L22 1.88816L21.42 3.13158L19.96 3.25132L21.07 4.14474L20.74 5.46184ZM19.53 7L20.18 4.41184L18 2.67105L20.88 2.44079L22 0L23.12 2.44079L26 2.67105L23.82 4.41184L24.47 7L22 5.62763L19.53 7Z" fill="#FFE600"/>
<mask id="path-5-inside-2_253_368" fill="white">
<path d="M2.74 5.46184L4 4.76184L5.26 5.47105L4.93 4.14474L6.04 3.26053L4.58 3.14079L4 1.88816L3.42 3.13158L1.96 3.25132L3.07 4.14474L2.74 5.46184ZM1.53 7L2.18 4.41184L0 2.67105L2.88 2.44079L4 0L5.12 2.44079L8 2.67105L5.82 4.41184L6.47 7L4 5.62763L1.53 7Z"/>
</mask>
<path d="M2.74 5.46184L4 4.76184L5.26 5.47105L4.93 4.14474L6.04 3.26053L4.58 3.14079L4 1.88816L3.42 3.13158L1.96 3.25132L3.07 4.14474L2.74 5.46184ZM1.53 7L2.18 4.41184L0 2.67105L2.88 2.44079L4 0L5.12 2.44079L8 2.67105L5.82 4.41184L6.47 7L4 5.62763L1.53 7Z" fill="black"/>
<path d="M2.74 5.46184L1.76998 5.21881L1.20943 7.45612L3.22564 6.336L2.74 5.46184ZM4 4.76184L4.4905 3.8904L4.00319 3.61611L3.51436 3.88768L4 4.76184ZM5.26 5.47105L4.7695 6.34249L6.79032 7.47994L6.23041 5.2296L5.26 5.47105ZM4.93 4.14474L4.30693 3.36257L3.80449 3.76281L3.95959 4.38618L4.93 4.14474ZM6.04 3.26053L6.66307 4.0427L8.63715 2.47017L6.12174 2.26387L6.04 3.26053ZM4.58 3.14079L3.67255 3.56096L3.91742 4.08981L4.49826 4.13744L4.58 3.14079ZM4 1.88816L4.90745 1.46799L4.00335 -0.484604L3.09374 1.46543L4 1.88816ZM3.42 3.13158L3.50174 4.12823L4.08069 4.08075L4.32626 3.55431L3.42 3.13158ZM1.96 3.25132L1.87826 2.25466L-0.618702 2.45944L1.33299 4.03032L1.96 3.25132ZM3.07 4.14474L4.04002 4.38777L4.19555 3.76699L3.69701 3.36573L3.07 4.14474ZM1.53 7L0.560119 6.75642L-0.0021559 8.99528L2.01568 7.87414L1.53 7ZM2.18 4.41184L3.14988 4.65542L3.30653 4.0317L2.80399 3.63041L2.18 4.41184ZM0 2.67105L-0.0796982 1.67423L-2.59869 1.87563L-0.623993 3.45248L0 2.67105ZM2.88 2.44079L2.9597 3.43761L3.54429 3.39087L3.78888 2.85785L2.88 2.44079ZM4 0L4.90888 -0.417056L4 -2.39776L3.09112 -0.417056L4 0ZM5.12 2.44079L4.21112 2.85785L4.45571 3.39087L5.0403 3.43761L5.12 2.44079ZM8 2.67105L8.62399 3.45248L10.5987 1.87563L8.0797 1.67423L8 2.67105ZM5.82 4.41184L5.19601 3.63041L4.69347 4.0317L4.85012 4.65542L5.82 4.41184ZM6.47 7L5.98432 7.87414L8.00216 8.99528L7.43988 6.75642L6.47 7ZM4 5.62763L4.48568 4.7535L4 4.48364L3.51432 4.7535L4 5.62763ZM3.22564 6.336L4.48564 5.636L3.51436 3.88768L2.25436 4.58769L3.22564 6.336ZM3.5095 5.63328L4.7695 6.34249L5.7505 4.59961L4.4905 3.8904L3.5095 5.63328ZM6.23041 5.2296L5.90041 3.90329L3.95959 4.38618L4.28959 5.7125L6.23041 5.2296ZM5.55307 4.92691L6.66307 4.0427L5.41693 2.47836L4.30693 3.36257L5.55307 4.92691ZM6.12174 2.26387L4.66174 2.14414L4.49826 4.13744L5.95826 4.25718L6.12174 2.26387ZM5.48745 2.72062L4.90745 1.46799L3.09255 2.30833L3.67255 3.56096L5.48745 2.72062ZM3.09374 1.46543L2.51374 2.70885L4.32626 3.55431L4.90626 2.31089L3.09374 1.46543ZM3.33826 2.13492L1.87826 2.25466L2.04174 4.24797L3.50174 4.12823L3.33826 2.13492ZM1.33299 4.03032L2.44299 4.92375L3.69701 3.36573L2.58701 2.47231L1.33299 4.03032ZM2.09998 3.9017L1.76998 5.21881L3.71002 5.70488L4.04002 4.38777L2.09998 3.9017ZM2.49988 7.24358L3.14988 4.65542L1.21012 4.16826L0.560119 6.75642L2.49988 7.24358ZM2.80399 3.63041L0.623993 1.88962L-0.623993 3.45248L1.55601 5.19327L2.80399 3.63041ZM0.0796982 3.66787L2.9597 3.43761L2.8003 1.44397L-0.0796982 1.67423L0.0796982 3.66787ZM3.78888 2.85785L4.90888 0.417056L3.09112 -0.417056L1.97112 2.02373L3.78888 2.85785ZM3.09112 0.417056L4.21112 2.85785L6.02888 2.02373L4.90888 -0.417056L3.09112 0.417056ZM5.0403 3.43761L7.9203 3.66787L8.0797 1.67423L5.1997 1.44397L5.0403 3.43761ZM7.37601 1.88962L5.19601 3.63041L6.44399 5.19327L8.62399 3.45248L7.37601 1.88962ZM4.85012 4.65542L5.50012 7.24358L7.43988 6.75642L6.78988 4.16826L4.85012 4.65542ZM6.95568 6.12586L4.48568 4.7535L3.51432 6.50177L5.98432 7.87414L6.95568 6.12586ZM3.51432 4.7535L1.04432 6.12586L2.01568 7.87414L4.48568 6.50177L3.51432 4.7535Z" fill="#FFE600" mask="url(#path-5-inside-2_253_368)"/>
<path d="M11.74 5.46184L13 4.76184L14.26 5.47105L13.93 4.14474L15.04 3.26053L13.58 3.14079L13 1.88816L12.42 3.13158L10.96 3.25132L12.07 4.14474L11.74 5.46184ZM10.53 7L11.18 4.41184L9 2.67105L11.88 2.44079L13 0L14.12 2.44079L17 2.67105L14.82 4.41184L15.47 7L13 5.62763L10.53 7Z" fill="#FFE600"/>
<path d="M29.74 5.46184L31 4.76184L32.26 5.47105L31.93 4.14474L33.04 3.26053L31.58 3.14079L31 1.88816L30.42 3.13158L28.96 3.25132L30.07 4.14474L29.74 5.46184ZM28.53 7L29.18 4.41184L27 2.67105L29.88 2.44079L31 0L32.12 2.44079L35 2.67105L32.82 4.41184L33.47 7L31 5.62763L28.53 7Z" fill="#FFE600"/>
<path d="M38.74 5.46184L40 4.76184L41.26 5.47105L40.93 4.14474L42.04 3.26053L40.58 3.14079L40 1.88816L39.42 3.13158L37.96 3.25132L39.07 4.14474L38.74 5.46184ZM37.53 7L38.18 4.41184L36 2.67105L38.88 2.44079L40 0L41.12 2.44079L44 2.67105L41.82 4.41184L42.47 7L40 5.62763L37.53 7Z" fill="url(#paint0_linear_253_368)"/>
<mask id="path-10-inside-3_253_368" fill="white">
<path d="M2.74 5.46184L4 4.76184L5.26 5.47105L4.93 4.14474L6.04 3.26053L4.58 3.14079L4 1.88816L3.42 3.13158L1.96 3.25132L3.07 4.14474L2.74 5.46184ZM1.53 7L2.18 4.41184L0 2.67105L2.88 2.44079L4 0L5.12 2.44079L8 2.67105L5.82 4.41184L6.47 7L4 5.62763L1.53 7Z"/>
</mask>
<path d="M2.74 5.46184L4 4.76184L5.26 5.47105L4.93 4.14474L6.04 3.26053L4.58 3.14079L4 1.88816L3.42 3.13158L1.96 3.25132L3.07 4.14474L2.74 5.46184ZM1.53 7L2.18 4.41184L0 2.67105L2.88 2.44079L4 0L5.12 2.44079L8 2.67105L5.82 4.41184L6.47 7L4 5.62763L1.53 7Z" fill="black"/>
<path d="M2.74 5.46184L1.76998 5.21881L1.20943 7.45612L3.22564 6.336L2.74 5.46184ZM4 4.76184L4.4905 3.8904L4.00319 3.61611L3.51436 3.88768L4 4.76184ZM5.26 5.47105L4.7695 6.34249L6.79032 7.47994L6.23041 5.2296L5.26 5.47105ZM4.93 4.14474L4.30693 3.36257L3.80449 3.76281L3.95959 4.38618L4.93 4.14474ZM6.04 3.26053L6.66307 4.0427L8.63715 2.47017L6.12174 2.26387L6.04 3.26053ZM4.58 3.14079L3.67255 3.56096L3.91742 4.08981L4.49826 4.13744L4.58 3.14079ZM4 1.88816L4.90745 1.46799L4.00335 -0.484604L3.09374 1.46543L4 1.88816ZM3.42 3.13158L3.50174 4.12823L4.08069 4.08075L4.32626 3.55431L3.42 3.13158ZM1.96 3.25132L1.87826 2.25466L-0.618702 2.45944L1.33299 4.03032L1.96 3.25132ZM3.07 4.14474L4.04002 4.38777L4.19555 3.76699L3.69701 3.36573L3.07 4.14474ZM1.53 7L0.560119 6.75642L-0.0021559 8.99528L2.01568 7.87414L1.53 7ZM2.18 4.41184L3.14988 4.65542L3.30653 4.0317L2.80399 3.63041L2.18 4.41184ZM0 2.67105L-0.0796982 1.67423L-2.59869 1.87563L-0.623993 3.45248L0 2.67105ZM2.88 2.44079L2.9597 3.43761L3.54429 3.39087L3.78888 2.85785L2.88 2.44079ZM4 0L4.90888 -0.417056L4 -2.39776L3.09112 -0.417056L4 0ZM5.12 2.44079L4.21112 2.85785L4.45571 3.39087L5.0403 3.43761L5.12 2.44079ZM8 2.67105L8.62399 3.45248L10.5987 1.87563L8.0797 1.67423L8 2.67105ZM5.82 4.41184L5.19601 3.63041L4.69347 4.0317L4.85012 4.65542L5.82 4.41184ZM6.47 7L5.98432 7.87414L8.00216 8.99528L7.43988 6.75642L6.47 7ZM4 5.62763L4.48568 4.7535L4 4.48364L3.51432 4.7535L4 5.62763ZM3.22564 6.336L4.48564 5.636L3.51436 3.88768L2.25436 4.58769L3.22564 6.336ZM3.5095 5.63328L4.7695 6.34249L5.7505 4.59961L4.4905 3.8904L3.5095 5.63328ZM6.23041 5.2296L5.90041 3.90329L3.95959 4.38618L4.28959 5.7125L6.23041 5.2296ZM5.55307 4.92691L6.66307 4.0427L5.41693 2.47836L4.30693 3.36257L5.55307 4.92691ZM6.12174 2.26387L4.66174 2.14414L4.49826 4.13744L5.95826 4.25718L6.12174 2.26387ZM5.48745 2.72062L4.90745 1.46799L3.09255 2.30833L3.67255 3.56096L5.48745 2.72062ZM3.09374 1.46543L2.51374 2.70885L4.32626 3.55431L4.90626 2.31089L3.09374 1.46543ZM3.33826 2.13492L1.87826 2.25466L2.04174 4.24797L3.50174 4.12823L3.33826 2.13492ZM1.33299 4.03032L2.44299 4.92375L3.69701 3.36573L2.58701 2.47231L1.33299 4.03032ZM2.09998 3.9017L1.76998 5.21881L3.71002 5.70488L4.04002 4.38777L2.09998 3.9017ZM2.49988 7.24358L3.14988 4.65542L1.21012 4.16826L0.560119 6.75642L2.49988 7.24358ZM2.80399 3.63041L0.623993 1.88962L-0.623993 3.45248L1.55601 5.19327L2.80399 3.63041ZM0.0796982 3.66787L2.9597 3.43761L2.8003 1.44397L-0.0796982 1.67423L0.0796982 3.66787ZM3.78888 2.85785L4.90888 0.417056L3.09112 -0.417056L1.97112 2.02373L3.78888 2.85785ZM3.09112 0.417056L4.21112 2.85785L6.02888 2.02373L4.90888 -0.417056L3.09112 0.417056ZM5.0403 3.43761L7.9203 3.66787L8.0797 1.67423L5.1997 1.44397L5.0403 3.43761ZM7.37601 1.88962L5.19601 3.63041L6.44399 5.19327L8.62399 3.45248L7.37601 1.88962ZM4.85012 4.65542L5.50012 7.24358L7.43988 6.75642L6.78988 4.16826L4.85012 4.65542ZM6.95568 6.12586L4.48568 4.7535L3.51432 6.50177L5.98432 7.87414L6.95568 6.12586ZM3.51432 4.7535L1.04432 6.12586L2.01568 7.87414L4.48568 6.50177L3.51432 4.7535Z" fill="#FFE600" mask="url(#path-10-inside-3_253_368)"/>
<path d="M11.74 5.46184L13 4.76184L14.26 5.47105L13.93 4.14474L15.04 3.26053L13.58 3.14079L13 1.88816L12.42 3.13158L10.96 3.25132L12.07 4.14474L11.74 5.46184ZM10.53 7L11.18 4.41184L9 2.67105L11.88 2.44079L13 0L14.12 2.44079L17 2.67105L14.82 4.41184L15.47 7L13 5.62763L10.53 7Z" fill="#FFE600"/>
<path d="M20.74 5.46184L22 4.76184L23.26 5.47105L22.93 4.14474L24.04 3.26053L22.58 3.14079L22 1.88816L21.42 3.13158L19.96 3.25132L21.07 4.14474L20.74 5.46184ZM19.53 7L20.18 4.41184L18 2.67105L20.88 2.44079L22 0L23.12 2.44079L26 2.67105L23.82 4.41184L24.47 7L22 5.62763L19.53 7Z" fill="#FFE600"/>
<mask id="path-14-inside-4_253_368" fill="white">
<path d="M2.74 5.46184L4 4.76184L5.26 5.47105L4.93 4.14474L6.04 3.26053L4.58 3.14079L4 1.88816L3.42 3.13158L1.96 3.25132L3.07 4.14474L2.74 5.46184ZM1.53 7L2.18 4.41184L0 2.67105L2.88 2.44079L4 0L5.12 2.44079L8 2.67105L5.82 4.41184L6.47 7L4 5.62763L1.53 7Z"/>
</mask>
<path d="M2.74 5.46184L4 4.76184L5.26 5.47105L4.93 4.14474L6.04 3.26053L4.58 3.14079L4 1.88816L3.42 3.13158L1.96 3.25132L3.07 4.14474L2.74 5.46184ZM1.53 7L2.18 4.41184L0 2.67105L2.88 2.44079L4 0L5.12 2.44079L8 2.67105L5.82 4.41184L6.47 7L4 5.62763L1.53 7Z" fill="black"/>
<path d="M2.74 5.46184L1.76998 5.21881L1.20943 7.45612L3.22564 6.336L2.74 5.46184ZM4 4.76184L4.4905 3.8904L4.00319 3.61611L3.51436 3.88768L4 4.76184ZM5.26 5.47105L4.7695 6.34249L6.79032 7.47994L6.23041 5.2296L5.26 5.47105ZM4.93 4.14474L4.30693 3.36257L3.80449 3.76281L3.95959 4.38618L4.93 4.14474ZM6.04 3.26053L6.66307 4.0427L8.63715 2.47017L6.12174 2.26387L6.04 3.26053ZM4.58 3.14079L3.67255 3.56096L3.91742 4.08981L4.49826 4.13744L4.58 3.14079ZM4 1.88816L4.90745 1.46799L4.00335 -0.484604L3.09374 1.46543L4 1.88816ZM3.42 3.13158L3.50174 4.12823L4.08069 4.08075L4.32626 3.55431L3.42 3.13158ZM1.96 3.25132L1.87826 2.25466L-0.618702 2.45944L1.33299 4.03032L1.96 3.25132ZM3.07 4.14474L4.04002 4.38777L4.19555 3.76699L3.69701 3.36573L3.07 4.14474ZM1.53 7L0.560119 6.75642L-0.0021559 8.99528L2.01568 7.87414L1.53 7ZM2.18 4.41184L3.14988 4.65542L3.30653 4.0317L2.80399 3.63041L2.18 4.41184ZM0 2.67105L-0.0796982 1.67423L-2.59869 1.87563L-0.623993 3.45248L0 2.67105ZM2.88 2.44079L2.9597 3.43761L3.54429 3.39087L3.78888 2.85785L2.88 2.44079ZM4 0L4.90888 -0.417056L4 -2.39776L3.09112 -0.417056L4 0ZM5.12 2.44079L4.21112 2.85785L4.45571 3.39087L5.0403 3.43761L5.12 2.44079ZM8 2.67105L8.62399 3.45248L10.5987 1.87563L8.0797 1.67423L8 2.67105ZM5.82 4.41184L5.19601 3.63041L4.69347 4.0317L4.85012 4.65542L5.82 4.41184ZM6.47 7L5.98432 7.87414L8.00216 8.99528L7.43988 6.75642L6.47 7ZM4 5.62763L4.48568 4.7535L4 4.48364L3.51432 4.7535L4 5.62763ZM3.22564 6.336L4.48564 5.636L3.51436 3.88768L2.25436 4.58769L3.22564 6.336ZM3.5095 5.63328L4.7695 6.34249L5.7505 4.59961L4.4905 3.8904L3.5095 5.63328ZM6.23041 5.2296L5.90041 3.90329L3.95959 4.38618L4.28959 5.7125L6.23041 5.2296ZM5.55307 4.92691L6.66307 4.0427L5.41693 2.47836L4.30693 3.36257L5.55307 4.92691ZM6.12174 2.26387L4.66174 2.14414L4.49826 4.13744L5.95826 4.25718L6.12174 2.26387ZM5.48745 2.72062L4.90745 1.46799L3.09255 2.30833L3.67255 3.56096L5.48745 2.72062ZM3.09374 1.46543L2.51374 2.70885L4.32626 3.55431L4.90626 2.31089L3.09374 1.46543ZM3.33826 2.13492L1.87826 2.25466L2.04174 4.24797L3.50174 4.12823L3.33826 2.13492ZM1.33299 4.03032L2.44299 4.92375L3.69701 3.36573L2.58701 2.47231L1.33299 4.03032ZM2.09998 3.9017L1.76998 5.21881L3.71002 5.70488L4.04002 4.38777L2.09998 3.9017ZM2.49988 7.24358L3.14988 4.65542L1.21012 4.16826L0.560119 6.75642L2.49988 7.24358ZM2.80399 3.63041L0.623993 1.88962L-0.623993 3.45248L1.55601 5.19327L2.80399 3.63041ZM0.0796982 3.66787L2.9597 3.43761L2.8003 1.44397L-0.0796982 1.67423L0.0796982 3.66787ZM3.78888 2.85785L4.90888 0.417056L3.09112 -0.417056L1.97112 2.02373L3.78888 2.85785ZM3.09112 0.417056L4.21112 2.85785L6.02888 2.02373L4.90888 -0.417056L3.09112 0.417056ZM5.0403 3.43761L7.9203 3.66787L8.0797 1.67423L5.1997 1.44397L5.0403 3.43761ZM7.37601 1.88962L5.19601 3.63041L6.44399 5.19327L8.62399 3.45248L7.37601 1.88962ZM4.85012 4.65542L5.50012 7.24358L7.43988 6.75642L6.78988 4.16826L4.85012 4.65542ZM6.95568 6.12586L4.48568 4.7535L3.51432 6.50177L5.98432 7.87414L6.95568 6.12586ZM3.51432 4.7535L1.04432 6.12586L2.01568 7.87414L4.48568 6.50177L3.51432 4.7535Z" fill="#FFE600" mask="url(#path-14-inside-4_253_368)"/>
<path d="M11.74 5.46184L13 4.76184L14.26 5.47105L13.93 4.14474L15.04 3.26053L13.58 3.14079L13 1.88816L12.42 3.13158L10.96 3.25132L12.07 4.14474L11.74 5.46184ZM10.53 7L11.18 4.41184L9 2.67105L11.88 2.44079L13 0L14.12 2.44079L17 2.67105L14.82 4.41184L15.47 7L13 5.62763L10.53 7Z" fill="#FFE600"/>
<path d="M20.74 5.46184L22 4.76184L23.26 5.47105L22.93 4.14474L24.04 3.26053L22.58 3.14079L22 1.88816L21.42 3.13158L19.96 3.25132L21.07 4.14474L20.74 5.46184ZM19.53 7L20.18 4.41184L18 2.67105L20.88 2.44079L22 0L23.12 2.44079L26 2.67105L23.82 4.41184L24.47 7L22 5.62763L19.53 7Z" fill="#FFE600"/>
<mask id="path-18-inside-5_253_368" fill="white">
<path d="M2.74 5.46184L4 4.76184L5.26 5.47105L4.93 4.14474L6.04 3.26053L4.58 3.14079L4 1.88816L3.42 3.13158L1.96 3.25132L3.07 4.14474L2.74 5.46184ZM1.53 7L2.18 4.41184L0 2.67105L2.88 2.44079L4 0L5.12 2.44079L8 2.67105L5.82 4.41184L6.47 7L4 5.62763L1.53 7Z"/>
</mask>
<path d="M2.74 5.46184L4 4.76184L5.26 5.47105L4.93 4.14474L6.04 3.26053L4.58 3.14079L4 1.88816L3.42 3.13158L1.96 3.25132L3.07 4.14474L2.74 5.46184ZM1.53 7L2.18 4.41184L0 2.67105L2.88 2.44079L4 0L5.12 2.44079L8 2.67105L5.82 4.41184L6.47 7L4 5.62763L1.53 7Z" fill="black"/>
<path d="M2.74 5.46184L1.76998 5.21881L1.20943 7.45612L3.22564 6.336L2.74 5.46184ZM4 4.76184L4.4905 3.8904L4.00319 3.61611L3.51436 3.88768L4 4.76184ZM5.26 5.47105L4.7695 6.34249L6.79032 7.47994L6.23041 5.2296L5.26 5.47105ZM4.93 4.14474L4.30693 3.36257L3.80449 3.76281L3.95959 4.38618L4.93 4.14474ZM6.04 3.26053L6.66307 4.0427L8.63715 2.47017L6.12174 2.26387L6.04 3.26053ZM4.58 3.14079L3.67255 3.56096L3.91742 4.08981L4.49826 4.13744L4.58 3.14079ZM4 1.88816L4.90745 1.46799L4.00335 -0.484604L3.09374 1.46543L4 1.88816ZM3.42 3.13158L3.50174 4.12823L4.08069 4.08075L4.32626 3.55431L3.42 3.13158ZM1.96 3.25132L1.87826 2.25466L-0.618702 2.45944L1.33299 4.03032L1.96 3.25132ZM3.07 4.14474L4.04002 4.38777L4.19555 3.76699L3.69701 3.36573L3.07 4.14474ZM1.53 7L0.560119 6.75642L-0.0021559 8.99528L2.01568 7.87414L1.53 7ZM2.18 4.41184L3.14988 4.65542L3.30653 4.0317L2.80399 3.63041L2.18 4.41184ZM0 2.67105L-0.0796982 1.67423L-2.59869 1.87563L-0.623993 3.45248L0 2.67105ZM2.88 2.44079L2.9597 3.43761L3.54429 3.39087L3.78888 2.85785L2.88 2.44079ZM4 0L4.90888 -0.417056L4 -2.39776L3.09112 -0.417056L4 0ZM5.12 2.44079L4.21112 2.85785L4.45571 3.39087L5.0403 3.43761L5.12 2.44079ZM8 2.67105L8.62399 3.45248L10.5987 1.87563L8.0797 1.67423L8 2.67105ZM5.82 4.41184L5.19601 3.63041L4.69347 4.0317L4.85012 4.65542L5.82 4.41184ZM6.47 7L5.98432 7.87414L8.00216 8.99528L7.43988 6.75642L6.47 7ZM4 5.62763L4.48568 4.7535L4 4.48364L3.51432 4.7535L4 5.62763ZM3.22564 6.336L4.48564 5.636L3.51436 3.88768L2.25436 4.58769L3.22564 6.336ZM3.5095 5.63328L4.7695 6.34249L5.7505 4.59961L4.4905 3.8904L3.5095 5.63328ZM6.23041 5.2296L5.90041 3.90329L3.95959 4.38618L4.28959 5.7125L6.23041 5.2296ZM5.55307 4.92691L6.66307 4.0427L5.41693 2.47836L4.30693 3.36257L5.55307 4.92691ZM6.12174 2.26387L4.66174 2.14414L4.49826 4.13744L5.95826 4.25718L6.12174 2.26387ZM5.48745 2.72062L4.90745 1.46799L3.09255 2.30833L3.67255 3.56096L5.48745 2.72062ZM3.09374 1.46543L2.51374 2.70885L4.32626 3.55431L4.90626 2.31089L3.09374 1.46543ZM3.33826 2.13492L1.87826 2.25466L2.04174 4.24797L3.50174 4.12823L3.33826 2.13492ZM1.33299 4.03032L2.44299 4.92375L3.69701 3.36573L2.58701 2.47231L1.33299 4.03032ZM2.09998 3.9017L1.76998 5.21881L3.71002 5.70488L4.04002 4.38777L2.09998 3.9017ZM2.49988 7.24358L3.14988 4.65542L1.21012 4.16826L0.560119 6.75642L2.49988 7.24358ZM2.80399 3.63041L0.623993 1.88962L-0.623993 3.45248L1.55601 5.19327L2.80399 3.63041ZM0.0796982 3.66787L2.9597 3.43761L2.8003 1.44397L-0.0796982 1.67423L0.0796982 3.66787ZM3.78888 2.85785L4.90888 0.417056L3.09112 -0.417056L1.97112 2.02373L3.78888 2.85785ZM3.09112 0.417056L4.21112 2.85785L6.02888 2.02373L4.90888 -0.417056L3.09112 0.417056ZM5.0403 3.43761L7.9203 3.66787L8.0797 1.67423L5.1997 1.44397L5.0403 3.43761ZM7.37601 1.88962L5.19601 3.63041L6.44399 5.19327L8.62399 3.45248L7.37601 1.88962ZM4.85012 4.65542L5.50012 7.24358L7.43988 6.75642L6.78988 4.16826L4.85012 4.65542ZM6.95568 6.12586L4.48568 4.7535L3.51432 6.50177L5.98432 7.87414L6.95568 6.12586ZM3.51432 4.7535L1.04432 6.12586L2.01568 7.87414L4.48568 6.50177L3.51432 4.7535Z" fill="#FFE600" mask="url(#path-18-inside-5_253_368)"/>
<path d="M11.74 5.46184L13 4.76184L14.26 5.47105L13.93 4.14474L15.04 3.26053L13.58 3.14079L13 1.88816L12.42 3.13158L10.96 3.25132L12.07 4.14474L11.74 5.46184ZM10.53 7L11.18 4.41184L9 2.67105L11.88 2.44079L13 0L14.12 2.44079L17 2.67105L14.82 4.41184L15.47 7L13 5.62763L10.53 7Z" fill="#FFE600"/>
<path d="M29.74 5.46184L31 4.76184L32.26 5.47105L31.93 4.14474L33.04 3.26053L31.58 3.14079L31 1.88816L30.42 3.13158L28.96 3.25132L30.07 4.14474L29.74 5.46184ZM28.53 7L29.18 4.41184L27 2.67105L29.88 2.44079L31 0L32.12 2.44079L35 2.67105L32.82 4.41184L33.47 7L31 5.62763L28.53 7Z" fill="#FFE600"/>
<path d="M38.74 5.46184L40 4.76184L41.26 5.47105L40.93 4.14474L42.04 3.26053L40.58 3.14079L40 1.88816L39.42 3.13158L37.96 3.25132L39.07 4.14474L38.74 5.46184ZM37.53 7L38.18 4.41184L36 2.67105L38.88 2.44079L40 0L41.12 2.44079L44 2.67105L41.82 4.41184L42.47 7L40 5.62763L37.53 7Z" fill="url(#paint1_linear_253_368)"/>
<mask id="path-23-inside-6_253_368" fill="white">
<path d="M2.74 5.46184L4 4.76184L5.26 5.47105L4.93 4.14474L6.04 3.26053L4.58 3.14079L4 1.88816L3.42 3.13158L1.96 3.25132L3.07 4.14474L2.74 5.46184ZM1.53 7L2.18 4.41184L0 2.67105L2.88 2.44079L4 0L5.12 2.44079L8 2.67105L5.82 4.41184L6.47 7L4 5.62763L1.53 7Z"/>
</mask>
<path d="M2.74 5.46184L4 4.76184L5.26 5.47105L4.93 4.14474L6.04 3.26053L4.58 3.14079L4 1.88816L3.42 3.13158L1.96 3.25132L3.07 4.14474L2.74 5.46184ZM1.53 7L2.18 4.41184L0 2.67105L2.88 2.44079L4 0L5.12 2.44079L8 2.67105L5.82 4.41184L6.47 7L4 5.62763L1.53 7Z" fill="black"/>
<path d="M2.74 5.46184L1.76998 5.21881L1.20943 7.45612L3.22564 6.336L2.74 5.46184ZM4 4.76184L4.4905 3.8904L4.00319 3.61611L3.51436 3.88768L4 4.76184ZM5.26 5.47105L4.7695 6.34249L6.79032 7.47994L6.23041 5.2296L5.26 5.47105ZM4.93 4.14474L4.30693 3.36257L3.80449 3.76281L3.95959 4.38618L4.93 4.14474ZM6.04 3.26053L6.66307 4.0427L8.63715 2.47017L6.12174 2.26387L6.04 3.26053ZM4.58 3.14079L3.67255 3.56096L3.91742 4.08981L4.49826 4.13744L4.58 3.14079ZM4 1.88816L4.90745 1.46799L4.00335 -0.484604L3.09374 1.46543L4 1.88816ZM3.42 3.13158L3.50174 4.12823L4.08069 4.08075L4.32626 3.55431L3.42 3.13158ZM1.96 3.25132L1.87826 2.25466L-0.618702 2.45944L1.33299 4.03032L1.96 3.25132ZM3.07 4.14474L4.04002 4.38777L4.19555 3.76699L3.69701 3.36573L3.07 4.14474ZM1.53 7L0.560119 6.75642L-0.0021559 8.99528L2.01568 7.87414L1.53 7ZM2.18 4.41184L3.14988 4.65542L3.30653 4.0317L2.80399 3.63041L2.18 4.41184ZM0 2.67105L-0.0796982 1.67423L-2.59869 1.87563L-0.623993 3.45248L0 2.67105ZM2.88 2.44079L2.9597 3.43761L3.54429 3.39087L3.78888 2.85785L2.88 2.44079ZM4 0L4.90888 -0.417056L4 -2.39776L3.09112 -0.417056L4 0ZM5.12 2.44079L4.21112 2.85785L4.45571 3.39087L5.0403 3.43761L5.12 2.44079ZM8 2.67105L8.62399 3.45248L10.5987 1.87563L8.0797 1.67423L8 2.67105ZM5.82 4.41184L5.19601 3.63041L4.69347 4.0317L4.85012 4.65542L5.82 4.41184ZM6.47 7L5.98432 7.87414L8.00216 8.99528L7.43988 6.75642L6.47 7ZM4 5.62763L4.48568 4.7535L4 4.48364L3.51432 4.7535L4 5.62763ZM3.22564 6.336L4.48564 5.636L3.51436 3.88768L2.25436 4.58769L3.22564 6.336ZM3.5095 5.63328L4.7695 6.34249L5.7505 4.59961L4.4905 3.8904L3.5095 5.63328ZM6.23041 5.2296L5.90041 3.90329L3.95959 4.38618L4.28959 5.7125L6.23041 5.2296ZM5.55307 4.92691L6.66307 4.0427L5.41693 2.47836L4.30693 3.36257L5.55307 4.92691ZM6.12174 2.26387L4.66174 2.14414L4.49826 4.13744L5.95826 4.25718L6.12174 2.26387ZM5.48745 2.72062L4.90745 1.46799L3.09255 2.30833L3.67255 3.56096L5.48745 2.72062ZM3.09374 1.46543L2.51374 2.70885L4.32626 3.55431L4.90626 2.31089L3.09374 1.46543ZM3.33826 2.13492L1.87826 2.25466L2.04174 4.24797L3.50174 4.12823L3.33826 2.13492ZM1.33299 4.03032L2.44299 4.92375L3.69701 3.36573L2.58701 2.47231L1.33299 4.03032ZM2.09998 3.9017L1.76998 5.21881L3.71002 5.70488L4.04002 4.38777L2.09998 3.9017ZM2.49988 7.24358L3.14988 4.65542L1.21012 4.16826L0.560119 6.75642L2.49988 7.24358ZM2.80399 3.63041L0.623993 1.88962L-0.623993 3.45248L1.55601 5.19327L2.80399 3.63041ZM0.0796982 3.66787L2.9597 3.43761L2.8003 1.44397L-0.0796982 1.67423L0.0796982 3.66787ZM3.78888 2.85785L4.90888 0.417056L3.09112 -0.417056L1.97112 2.02373L3.78888 2.85785ZM3.09112 0.417056L4.21112 2.85785L6.02888 2.02373L4.90888 -0.417056L3.09112 0.417056ZM5.0403 3.43761L7.9203 3.66787L8.0797 1.67423L5.1997 1.44397L5.0403 3.43761ZM7.37601 1.88962L5.19601 3.63041L6.44399 5.19327L8.62399 3.45248L7.37601 1.88962ZM4.85012 4.65542L5.50012 7.24358L7.43988 6.75642L6.78988 4.16826L4.85012 4.65542ZM6.95568 6.12586L4.48568 4.7535L3.51432 6.50177L5.98432 7.87414L6.95568 6.12586ZM3.51432 4.7535L1.04432 6.12586L2.01568 7.87414L4.48568 6.50177L3.51432 4.7535Z" fill="#FFE600" mask="url(#path-23-inside-6_253_368)"/>
<path d="M11.74 5.46184L13 4.76184L14.26 5.47105L13.93 4.14474L15.04 3.26053L13.58 3.14079L13 1.88816L12.42 3.13158L10.96 3.25132L12.07 4.14474L11.74 5.46184ZM10.53 7L11.18 4.41184L9 2.67105L11.88 2.44079L13 0L14.12 2.44079L17 2.67105L14.82 4.41184L15.47 7L13 5.62763L10.53 7Z" fill="#FFE600"/>
<path d="M29.74 5.46184L31 4.76184L32.26 5.47105L31.93 4.14474L33.04 3.26053L31.58 3.14079L31 1.88816L30.42 3.13158L28.96 3.25132L30.07 4.14474L29.74 5.46184ZM28.53 7L29.18 4.41184L27 2.67105L29.88 2.44079L31 0L32.12 2.44079L35 2.67105L32.82 4.41184L33.47 7L31 5.62763L28.53 7Z" fill="#FFE600"/>
<path d="M38.74 5.46184L40 4.76184L41.26 5.47105L40.93 4.14474L42.04 3.26053L40.58 3.14079L40 1.88816L39.42 3.13158L37.96 3.25132L39.07 4.14474L38.74 5.46184ZM37.53 7L38.18 4.41184L36 2.67105L38.88 2.44079L40 0L41.12 2.44079L44 2.67105L41.82 4.41184L42.47 7L40 5.62763L37.53 7Z" fill="url(#paint2_linear_253_368)"/>
<defs>
<linearGradient id="paint0_linear_253_368" x1="35.9385" y1="3.65587" x2="44.0615" y2="3.65587" gradientUnits="userSpaceOnUse">
<stop stop-color="#FFE600"/>
<stop offset="0.661458" stop-color="#FFE600"/>
<stop offset="0.661558" stop-color="white"/>
</linearGradient>
<linearGradient id="paint1_linear_253_368" x1="35.9385" y1="3.65587" x2="44.0615" y2="3.65587" gradientUnits="userSpaceOnUse">
<stop stop-color="#FFE600"/>
<stop offset="0.661458" stop-color="#FFE600"/>
<stop offset="0.661558" stop-color="white"/>
</linearGradient>
<linearGradient id="paint2_linear_253_368" x1="35.9385" y1="3.65587" x2="44.0615" y2="3.65587" gradientUnits="userSpaceOnUse">
<stop stop-color="#FFE600"/>
<stop offset="0.661458" stop-color="#FFE600"/>
<stop offset="0.661558" stop-color="white"/>
</linearGradient>
</defs>
</svg>
