<svg width="7" height="7" viewBox="0 0 7 7" fill="none" xmlns="http://www.w3.org/2000/svg">
<path d="M6.73048 3.15769C6.73048 3.27163 6.68968 3.3809 6.61705 3.46146C6.54442 3.54203 6.44591 3.58729 6.34319 3.58729H1.59893L3.26168 5.43132C3.33444 5.51202 3.37531 5.62148 3.37531 5.73562C3.37531 5.84975 3.33444 5.95921 3.26168 6.03991C3.18892 6.12062 3.09024 6.16596 2.98735 6.16596C2.88446 6.16596 2.78578 6.12062 2.71302 6.03991L0.3893 3.46235C0.353195 3.42244 0.324547 3.37501 0.305 3.32279C0.285453 3.27058 0.275391 3.21459 0.275391 3.15805C0.275391 3.10151 0.285453 3.04553 0.305 2.99331C0.324547 2.94109 0.353195 2.89367 0.3893 2.85376L2.71302 0.27619C2.74905 0.236229 2.79182 0.204531 2.83889 0.182904C2.88595 0.161277 2.9364 0.150146 2.98735 0.150146C3.0383 0.150146 3.08875 0.161277 3.13582 0.182904C3.18289 0.204531 3.22565 0.236229 3.26168 0.27619C3.2977 0.316151 3.32628 0.363591 3.34578 0.415802C3.36527 0.468013 3.37531 0.523973 3.37531 0.580486C3.37531 0.636999 3.36527 0.692958 3.34578 0.74517C3.32628 0.797381 3.2977 0.844821 3.26168 0.884782L1.59893 2.7281H6.34319C6.44591 2.7281 6.54442 2.77336 6.61705 2.85392C6.68968 2.93449 6.73048 3.04376 6.73048 3.15769Z" fill="black"/>
</svg>
